<svg xmlns="http://www.w3.org/2000/svg" style="display: none;">
    <symbol id="icon-logo" viewBox="0 0 24 24">
        <path d="M14.4 14.4L9.6 9.6M15 9H9v6M9 21a12 12 0 0 1 0-18m6 18a12 12 0 0 0 0-18"/>
    </symbol>

    <symbol id="icon-arrow-right" viewBox="0 0 24 24">
        <path d="M5 12h14M12 5l7 7-7 7"/>
    </symbol>

    <symbol id="icon-clock" viewBox="0 0 24 24">
        <circle cx="12" cy="12" r="10"/><path d="M12 6v6l4 2"/>
    </symbol>

    <symbol id="icon-lightning" viewBox="0 0 24 24">
        <path d="M22 12h-4l-3 9L9 3l-3 9H2"/>
    </symbol>

    <symbol id="icon-heart" viewBox="0 0 24 24">
        <path d="M20.84 4.61a5.5 5.5 0 0 0-7.78 0L12 5.67l-1.06-1.06a5.5 5.5 0 0 0-7.78 7.78l1.06 1.06L12 21.23l7.78-7.78 1.06-1.06a5.5 5.5 0 0 0 0-7.78z"/>
    </symbol>

    <symbol id="icon-star-badge" viewBox="0 0 24 24">
        <circle cx="12" cy="8" r="7"/><path d="M8.21 13.89L7 23l5-3 5 3-1.21-9.11"/>
    </symbol>

    <symbol id="icon-users" viewBox="0 0 24 24">
        <path d="M17 21v-2a4 4 0 0 0-4-4H5a4 4 0 0 0-4 4v2"/><circle cx="9" cy="7" r="4"/>
        <path d="M23 21v-2a4 4 0 0 0-3-3.87M16 3.13a4 4 0 0 1 0 7.75"/>
    </symbol>

    <symbol id="icon-bolt" viewBox="0 0 24 24">
        <polygon points="13 2 3 14 12 14 11 22 21 10 12 10 13 2"/>
    </symbol>

    <symbol id="icon-check" viewBox="0 0 24 24">
        <polyline points="20 6 9 17 4 12"/>
    </symbol>

    <symbol id="icon-map-pin" viewBox="0 0 24 24">
        <path d="M21 10c0 7-9 13-9 13s-9-6-9-13a9 9 0 0 1 18 0z"/><circle cx="12" cy="10" r="3"/>
    </symbol>

    <symbol id="icon-signal" viewBox="0 0 24 24">
        <path d="M5 12.55a11 11 0 0 1 14.08 0"/><path d="M1.42 9a16 16 0 0 1 21.16 0"/>
        <path d="M8.53 16.11a6 6 0 0 1 6.95 0"/><line x1="12" y1="20" x2="12.01" y2="20"/>
    </symbol>

    <symbol id="icon-quote" viewBox="0 0 24 24">
        <path d="M14 17h3l2-4V7h-6v6h3M6 17h3l2-4V7H5v6h3"/>
    </symbol>

    <symbol id="icon-instagram" viewBox="0 0 24 24">
        <rect x="2" y="2" width="20" height="20" rx="5" ry="5"/><path d="M16 11.37A4 4 0 1 1 12.63 8 4 4 0 0 1 16 11.37z"/>
        <line x1="17.5" y1="6.5" x2="17.51" y2="6.5"/>
    </symbol>

    <symbol id="icon-chat" viewBox="0 0 24 24">
        <path d="M21 15a2 2 0 0 1-2 2H7l-4 4V5a2 2 0 0 1 2-2h14a2 2 0 0 1 2 2z"/>
    </symbol>

    <symbol id="icon-mail" viewBox="0 0 24 24">
        <path d="M4 4h16c1.1 0 2 .9 2 2v12c0 1.1-.9 2-2 2H4c-1.1 0-2-.9-2-2V6c0-1.1.9-2 2-2z"/>
        <polyline points="22,6 12,13 2,6"/>
    </symbol>
    
    <symbol id="icon-whatsapp-fill" viewBox="0 0 24 24">
        <path d="M17.472 14.382c-.297-.149-1.758-.867-2.03-.967-.273-.099-.471-.148-.67.15-.197.297-.767.966-.94 1.164-.173.199-.347.223-.644.075-.297-.15-1.255-.463-2.39-1.475-.883-.788-1.48-1.761-1.653-2.059-.173-.297-.018-.458.13-.606.134-.133.298-.347.446-.52.149-.174.198-.298.298-.497.099-.198.05-.371-.025-.52-.075-.149-.669-1.612-.916-2.207-.242-.579-.487-.5-.669-.51-.173-.008-.371-.01-.57-.01-.198 0-.52.074-.792.372-.272.297-1.04 1.016-1.04 2.479 0 1.462 1.065 2.875 1.213 3.074.149.198 2.096 3.2 5.077 4.487.709.306 1.262.489 1.694.625.712.227 1.36.195 1.871.118.571-.085 1.758-.719 2.006-1.413.248-.694.248-1.289.173-1.413-.074-.124-.272-.198-.57-.347m-5.421 7.403h-.004a9.87 9.87 0 01-5.031-1.378l-.361-.214-3.741.982.998-3.648-.235-.374a9.86 9.86 0 01-1.51-5.26c.001-5.45 4.436-9.884 9.888-9.884 2.64 0 5.122 1.03 6.988 2.898a9.825 9.825 0 012.893 6.994c-.003 5.45-4.437 9.884-9.885 9.884m8.413-18.297A11.815 11.815 0 0012.05 0C5.495 0 .16 5.335.157 11.892c0 2.096.547 4.142 1.588 5.945L.057 24l6.305-1.654a11.882 11.882 0 005.683 1.448h.005c6.554 0 11.89-5.335 11.893-11.893a11.821 11.821 0 00-3.48-8.413Z"/>
    </symbol>
</svg>
